<svg width="40" height="39" viewBox="0 0 40 39" fill="none" xmlns="http://www.w3.org/2000/svg">
<mask id="mask0_212_49" style="mask-type:alpha" maskUnits="userSpaceOnUse" x="0" y="0" width="40" height="39">
<rect x="0.886719" y="0.366211" width="38.6338" height="38.6338" fill="#D9D9D9"/>
</mask>
<g mask="url(#mask0_212_49)">
<path d="M8.12946 34.1712C7.45873 34.1712 6.88861 33.9365 6.41911 33.467C5.9496 32.9975 5.71484 32.4274 5.71484 31.7566V28.6981L12.1538 22.9835V34.1712H8.12946ZM13.7635 34.1712V27.7323H26.6415V34.1712H13.7635ZM28.2512 34.1712V20.9714L21.3696 14.8543L26.239 10.5483L33.8853 17.3494C34.1536 17.5909 34.3548 17.8659 34.489 18.1744C34.6231 18.483 34.6902 18.8116 34.6902 19.1604V31.7566C34.6902 32.4274 34.4554 32.9975 33.9859 33.467C33.5164 33.9365 32.9463 34.1712 32.2756 34.1712H28.2512ZM5.71484 26.525V19.1604C5.71484 18.8116 5.78192 18.4763 5.91606 18.1543C6.05021 17.8324 6.25142 17.5641 6.51971 17.3494L18.5928 6.64467C18.8074 6.43004 19.0556 6.27577 19.3373 6.18187C19.619 6.08797 19.9074 6.04102 20.2025 6.04102C20.4976 6.04102 20.786 6.08797 21.0678 6.18187C21.3495 6.27577 21.5976 6.43004 21.8123 6.64467L25.0317 9.50196L5.71484 26.525Z" fill="white"/>
</g>
</svg>
