<svg width="28" height="28" viewBox="0 0 28 28" fill="none" xmlns="http://www.w3.org/2000/svg">
<g clip-path="url(#clip0_256_67)">
<path d="M19.2728 10.8861C19.436 10.7152 19.6311 10.5793 19.8467 10.4862C20.0624 10.3932 20.2941 10.3449 20.5284 10.3442C20.7626 10.3436 20.9946 10.3905 21.2108 10.4823C21.4269 10.5742 21.6228 10.709 21.7869 10.8789C21.951 11.0488 22.08 11.2504 22.1664 11.4717C22.2527 11.693 22.2947 11.9297 22.2897 12.1677C22.2848 12.4058 22.233 12.6404 22.1375 12.8579C22.0421 13.0753 21.9048 13.2711 21.7337 13.4338L15.0596 20.1229C14.7306 20.4513 14.2879 20.6354 13.8268 20.6354C13.3657 20.6354 12.923 20.4513 12.5941 20.1229L6.01563 13.5195C5.68324 13.1875 5.49423 12.7349 5.49017 12.2612C5.48611 11.7875 5.66734 11.3316 5.99398 10.9938C6.32062 10.6559 6.76592 10.4638 7.23193 10.4597C7.69793 10.4555 8.14646 10.6397 8.47884 10.9718L12.0996 14.6197L12.1361 1.77198C12.1559 1.30903 12.3517 0.871959 12.6823 0.552892C13.0129 0.233825 13.4525 0.0576829 13.9083 0.061587C14.3642 0.065491 14.8008 0.249137 15.1261 0.57382C15.4513 0.898503 15.6399 1.33886 15.652 1.80209L15.6178 14.5409L19.2728 10.8861ZM0 26.2839L0.0227865 19.2937C0.016704 19.0537 0.0582224 18.815 0.144866 18.5916C0.23151 18.3683 0.361506 18.165 0.527102 17.9939C0.692698 17.8227 0.890505 17.6872 1.10873 17.5954C1.32695 17.5037 1.56112 17.4575 1.79728 17.4596C2.03343 17.4618 2.26674 17.5123 2.48329 17.6081C2.69984 17.7039 2.89519 17.843 3.05771 18.0172C3.22022 18.1914 3.34657 18.3971 3.42921 18.6219C3.51185 18.8468 3.5491 19.0863 3.53874 19.3261L3.52279 24.4217C10.5106 24.4356 17.4916 24.4356 24.4658 24.4217L24.4818 19.2983C24.486 18.8241 24.6754 18.371 25.0083 18.0387C25.3412 17.7064 25.7903 17.5222 26.2568 17.5265C26.7234 17.5308 27.1691 17.7233 27.496 18.0617C27.823 18.4 28.0042 18.8565 28 19.3308L27.9772 26.2792H27.9567C27.9363 26.7359 27.7444 27.1672 27.4205 27.4843C27.0967 27.8014 26.6655 27.9802 26.2158 27.9839C18.0537 27.9994 9.89768 27.9994 1.74772 27.9839C1.29744 27.9826 0.864872 27.8054 0.539549 27.489C0.214226 27.1725 0.0210506 26.7411 0 26.2839Z" fill="black"/>
</g>
<defs>
<clipPath id="clip0_256_67">
<rect width="28" height="28" fill="white"/>
</clipPath>
</defs>
</svg>
