<svg width="65" height="65" viewBox="0 0 65 65" fill="none" xmlns="http://www.w3.org/2000/svg">
<rect width="65" height="65" rx="10" fill="black"/>
<path d="M49.27 47.61C49.27 49.0987 48.731 50.382 47.653 51.46C46.6263 52.4867 45.3687 53 43.88 53H16.93V26.05L22.32 20.66H16.93V15.27H38.49C39.9787 15.27 41.2363 15.809 42.263 16.887C43.341 17.9137 43.88 19.1713 43.88 20.66V31.44H44.034C45.5227 31.44 46.7547 31.979 47.73 33.057C48.7567 34.0837 49.27 35.3413 49.27 36.83V47.61ZM37.72 31.44V20.66H23.09V36.06L27.71 31.44H37.72ZM43.11 47.61V36.83H23.09V47.61H43.11Z" fill="white"/>
</svg>
