<svg width="40" height="40" viewBox="0 0 40 40" fill="none" xmlns="http://www.w3.org/2000/svg">
<mask id="mask0_238_83" style="mask-type:alpha" maskUnits="userSpaceOnUse" x="0" y="0" width="40" height="40">
<rect x="0.521484" y="0.836914" width="38.6338" height="38.6338" fill="#D9D9D9"/>
</mask>
<g mask="url(#mask0_238_83)">
<path d="M7.76422 34.6419C7.0935 34.6419 6.52338 34.4072 6.05387 33.9377C5.58436 33.4682 5.34961 32.8981 5.34961 32.2273V29.1688L11.7886 23.4542V34.6419H7.76422ZM13.3983 34.6419V28.203H26.2762V34.6419H13.3983ZM27.886 34.6419V21.4421L21.0043 15.3251L25.8738 11.019L33.5201 17.8202C33.7884 18.0616 33.9896 18.3366 34.1237 18.6451C34.2579 18.9537 34.325 19.2823 34.325 19.6311V32.2273C34.325 32.8981 34.0902 33.4682 33.6207 33.9377C33.1512 34.4072 32.5811 34.6419 31.9103 34.6419H27.886ZM5.34961 26.9957V19.6311C5.34961 19.2823 5.41668 18.947 5.55083 18.625C5.68497 18.3031 5.88619 18.0348 6.15448 17.8202L18.2275 7.11537C18.4422 6.90074 18.6903 6.74647 18.972 6.65257C19.2538 6.55867 19.5422 6.51172 19.8373 6.51172C20.1324 6.51172 20.4208 6.55867 20.7025 6.65257C20.9842 6.74647 21.2324 6.90074 21.447 7.11537L24.6665 9.97266L5.34961 26.9957Z" fill="#99AFBF"/>
</g>
</svg>
