<svg width="34" height="34" viewBox="0 0 34 34" fill="none" xmlns="http://www.w3.org/2000/svg">
<g clip-path="url(#clip0_256_54)">
<path d="M26.3228 0H7.67723C3.43721 0 0 3.45313 0 7.71278V26.2872C0 30.5469 3.43721 34 7.67723 34H26.3228C30.5628 34 34 30.5469 34 26.2872V7.71278C34 3.45313 30.5628 0 26.3228 0Z" fill="#19191D"/>
<path fill-rule="evenodd" clip-rule="evenodd" d="M13.6115 13.1788H17.9073V15.391H17.9698C18.5681 14.3129 20.031 13.1788 22.2125 13.1788C26.7487 13.1788 27.5874 16.0148 27.5874 19.7041V27.5043H23.1076L23.107 20.5574C23.107 18.9689 23.0744 16.9248 20.7774 16.9248C18.4452 16.9248 18.0873 18.6533 18.0873 20.4419V27.5043H13.6115V13.1788ZM11.0728 8.83641C11.0728 10.128 10.0289 11.1767 8.74328 11.1767C7.45699 11.1767 6.41309 10.128 6.41309 8.83641C6.41309 7.54417 7.45699 6.49609 8.74328 6.49609C10.0289 6.49609 11.0728 7.54417 11.0728 8.83641ZM6.41309 13.1788H11.0728V27.5043H6.41309V13.1788Z" fill="white"/>
</g>
<defs>
<clipPath id="clip0_256_54">
<rect width="34" height="34" fill="white"/>
</clipPath>
</defs>
</svg>
