<svg width="66" height="68" viewBox="0 0 66 68" fill="none" xmlns="http://www.w3.org/2000/svg">
<path fill-rule="evenodd" clip-rule="evenodd" d="M0.790801 11.4424C5.99824 15.0197 11.1643 18.6175 15.5249 23.2499C13.0253 34.2906 23.0016 43.1118 32.1001 48.3088C35.6619 50.3432 37.2363 51.7695 41.2014 51.084L56.8165 66.3832C27.4301 76.2523 -5.54905 34.8474 0.790801 11.4424ZM45.2267 47.1504L48.6521 43.6714C49.6398 42.6666 51.2704 42.6539 52.2752 43.6421L64.9041 56.076C65.9084 57.0642 65.9211 58.6949 64.9334 59.6992L61.5069 63.1787C60.5187 64.183 58.888 64.1957 57.8832 63.2074L45.2543 50.7736C44.2495 49.7859 44.2373 48.1552 45.2267 47.1504ZM3.86875 4.12479L6.35454 1.1065C7.42011 -0.187213 9.35129 -0.373923 10.645 0.691649L23.5738 11.3424C24.8675 12.4091 25.0526 14.3392 23.9881 15.6345L21.5012 18.6512C20.4351 19.9465 18.5045 20.1316 17.2102 19.066L4.2836 8.41525C2.98989 7.34968 2.80208 5.4185 3.86875 4.12479Z" fill="white"/>
</svg>
