<svg width="28" height="29" viewBox="0 0 28 29" fill="none" xmlns="http://www.w3.org/2000/svg">
<path fill-rule="evenodd" clip-rule="evenodd" d="M0.336428 4.86791C2.55182 6.3898 4.74958 7.92038 6.60471 9.89113C5.54131 14.5882 9.78549 18.341 13.6563 20.5519C15.1716 21.4174 15.8413 22.0242 17.5282 21.7325L24.1713 28.2412C11.6695 32.4398 -2.36072 14.8251 0.336428 4.86791ZM19.2407 20.0591L20.6979 18.579C21.1181 18.1515 21.8119 18.1461 22.2393 18.5666L27.612 23.8563C28.0392 24.2767 28.0446 24.9704 27.6245 25.3977L26.1667 26.878C25.7463 27.3052 25.0526 27.3106 24.6251 26.8902L19.2524 21.6005C18.8249 21.1803 18.8198 20.4865 19.2407 20.0591ZM1.64587 1.7548L2.70339 0.470735C3.15672 -0.0796457 3.9783 -0.159077 4.52868 0.294247L10.029 4.82537C10.5793 5.27916 10.6581 6.10027 10.2052 6.65136L9.14722 7.93472C8.69366 8.4858 7.87232 8.56453 7.32171 8.1112L1.82236 3.58008C1.27198 3.12676 1.19208 2.30518 1.64587 1.7548Z" fill="#19191D"/>
</svg>
